<svg width="65" height="64" viewBox="0 0 65 64" fill="none" xmlns="http://www.w3.org/2000/svg">
<mask id="mask0_306_23982" style="mask-type:alpha" maskUnits="userSpaceOnUse" x="0" y="0" width="65" height="64">
<rect x="0.957031" y="0.052002" width="63.1335" height="63.1335" fill="#D9D9D9" style="fill:#D9D9D9;fill:color(display-p3 0.8510 0.8510 0.8510);fill-opacity:1;"/>
</mask>
<g mask="url(#mask0_306_23982)">
<path d="M32.5244 57.9244C28.8854 57.9244 25.4657 57.2339 22.2652 55.8528C19.0647 54.4718 16.2806 52.5975 13.9131 50.23C11.5456 47.8625 9.67136 45.0785 8.29032 41.878C6.90927 38.6775 6.21875 35.2577 6.21875 31.6188C6.21875 27.9798 6.90927 24.5601 8.29032 21.3596C9.67136 18.1591 11.5456 15.3751 13.9131 13.0076C16.2806 10.6401 19.0647 8.76578 22.2652 7.38474C25.4657 6.00369 28.8854 5.31317 32.5244 5.31317C36.1633 5.31317 39.583 6.00369 42.7836 7.38474C45.9841 8.76578 48.7681 10.6401 51.1356 13.0076C53.5031 15.3751 55.3774 18.1591 56.7584 21.3596C58.1395 24.5601 58.83 27.9798 58.83 31.6188C58.83 35.2577 58.1395 38.6775 56.7584 41.878C55.3774 45.0785 53.5031 47.8625 51.1356 50.23C48.7681 52.5975 45.9841 54.4718 42.7836 55.8528C39.583 57.2339 36.1633 57.9244 32.5244 57.9244ZM32.5244 46.0869C34.4973 44.114 36.251 42.0753 37.7855 39.9708C39.1008 38.1733 40.3064 36.2004 41.4025 34.0521C42.4986 31.9038 43.0466 29.7774 43.0466 27.6729C43.0466 24.7793 42.0163 22.3022 39.9557 20.2416C37.8951 18.181 35.418 17.1507 32.5244 17.1507C29.6308 17.1507 27.1536 18.181 25.093 20.2416C23.0324 22.3022 22.0021 24.7793 22.0021 27.6729C22.0021 29.7774 22.5502 31.9038 23.6462 34.0521C24.7423 36.2004 25.948 38.1733 27.2632 39.9708C28.7977 42.0753 30.5514 44.114 32.5244 46.0869ZM32.5244 31.6188C31.4283 31.6188 30.4966 31.2352 29.7294 30.4679C28.9621 29.7007 28.5785 28.769 28.5785 27.6729C28.5785 26.5769 28.9621 25.6452 29.7294 24.878C30.4966 24.1107 31.4283 23.7271 32.5244 23.7271C33.6204 23.7271 34.5521 24.1107 35.3193 24.878C36.0866 25.6452 36.4702 26.5769 36.4702 27.6729C36.4702 28.769 36.0866 29.7007 35.3193 30.4679C34.5521 31.2352 33.6204 31.6188 32.5244 31.6188Z" fill="#16393E" style="fill:#16393E;fill:color(display-p3 0.0863 0.2235 0.2431);fill-opacity:1;"/>
</g>
</svg>
