<svg width="24" height="24" viewBox="0 0 24 24" fill="none" xmlns="http://www.w3.org/2000/svg">
<path d="M23.4323 7.61167C23.3777 6.41421 23.1875 5.59643 22.9094 4.88082C22.6218 4.14104 22.2372 3.51364 21.6118 2.88823C20.9864 2.26279 20.3589 1.87812 19.6192 1.59062C18.9036 1.3125 18.0858 1.12236 16.8883 1.06768C15.6884 1.01293 15.3053 1 12.25 1C9.19466 1 8.81156 1.01293 7.61167 1.06768C6.41421 1.12236 5.59643 1.3125 4.88082 1.59062C4.14107 1.87812 3.51364 2.26276 2.88823 2.88823C2.26279 3.51364 1.87812 4.14104 1.59062 4.88082C1.3125 5.59641 1.12236 6.41421 1.06768 7.61167C1.01293 8.81156 1 9.19466 1 12.25C1 15.3053 1.01293 15.6884 1.06768 16.8883C1.12236 18.0858 1.3125 18.9035 1.59062 19.6192C1.87812 20.3589 2.26276 20.9864 2.88823 21.6118C3.51364 22.2372 4.14107 22.6218 4.88082 22.9094C5.59643 23.1875 6.41421 23.3776 7.61167 23.4323C8.81158 23.487 9.19469 23.5 12.25 23.5C15.3053 23.5 15.6884 23.487 16.8883 23.4323C18.0858 23.3776 18.9035 23.1875 19.6192 22.9094C20.3589 22.6218 20.9864 22.2372 21.6118 21.6118C22.2372 20.9864 22.6218 20.3589 22.9094 19.6192C23.1875 18.9035 23.3777 18.0858 23.4323 16.8883C23.487 15.6884 23.5 15.3053 23.5 12.25C23.5 9.19469 23.487 8.81156 23.4323 7.61167ZM21.4074 16.7959C21.3573 17.8928 21.174 18.4885 21.02 18.8849C20.816 19.41 20.5721 19.7848 20.1785 20.1785C19.7848 20.5721 19.41 20.8159 18.8849 21.02C18.4885 21.174 17.8928 21.3573 16.7959 21.4074C15.6098 21.4615 15.2541 21.473 12.25 21.473C9.24589 21.473 8.89013 21.4615 7.70403 21.4074C6.60722 21.3573 6.01148 21.174 5.61506 21.02C5.08995 20.816 4.7152 20.5721 4.32155 20.1785C3.92786 19.7848 3.68404 19.41 3.47995 18.8849C3.32591 18.4885 3.14266 17.8928 3.09258 16.796C3.03848 15.6097 3.02702 15.2539 3.02702 12.25C3.02702 9.24612 3.03846 8.89031 3.09258 7.70403C3.14266 6.60722 3.32591 6.01148 3.47995 5.61506C3.68401 5.08995 3.92783 4.7152 4.32149 4.32155C4.71518 3.92786 5.08995 3.68404 5.61506 3.47995C6.01148 3.32591 6.6072 3.14266 7.70403 3.09258C8.89031 3.03848 9.24612 3.02702 12.25 3.02702C15.2539 3.02702 15.6097 3.03846 16.7959 3.09258C17.8928 3.14266 18.4885 3.32591 18.8849 3.47995C19.41 3.68401 19.7848 3.92783 20.1785 4.32149C20.5721 4.71518 20.8159 5.08995 21.02 5.61506C21.174 6.01148 21.3573 6.6072 21.4074 7.70403C21.4615 8.89031 21.473 9.24612 21.473 12.25C21.473 15.2539 21.4615 15.6097 21.4074 16.7959Z" fill="#B6DCE1"/>
<path d="M12.2497 6.47266C9.0591 6.47266 6.47266 9.05913 6.47266 12.2497C6.47266 15.4403 9.05913 18.0267 12.2497 18.0267C15.4403 18.0267 18.0267 15.4402 18.0267 12.2497C18.0267 9.0591 15.4403 6.47266 12.2497 6.47266ZM12.2497 15.9997C10.1786 15.9997 8.49967 14.3208 8.49967 12.2497C8.49967 10.1786 10.1786 8.49967 12.2497 8.49967C14.3207 8.49967 15.9997 10.1786 15.9997 12.2497C15.9997 14.3207 14.3207 15.9997 12.2497 15.9997Z" fill="#B6DCE1"/>
<path d="M18.2562 7.59646C19.0018 7.59646 19.6062 6.99205 19.6062 6.24647C19.6062 5.50089 19.0018 4.89648 18.2562 4.89648C17.5107 4.89648 16.9062 5.50089 16.9062 6.24647C16.9062 6.99205 17.5107 7.59646 18.2562 7.59646Z" fill="#B6DCE1"/>
</svg>
