<svg width="24" height="24" viewBox="0 0 24 24" fill="none" xmlns="http://www.w3.org/2000/svg">
<path d="M6.01875 3.33752C6.01875 4.64377 5.05625 5.67499 3.475 5.67499C1.9625 5.67499 1 4.64377 1 3.33752C1 2.03127 1.9625 1 3.475 1C5.05625 1 5.95 2.03127 6.01875 3.33752ZM1.1375 22.725V7.59998H5.8125V22.725H1.1375ZM8.7 12.4125C8.7 10.5562 8.63125 8.97498 8.5625 7.59998H12.6188L12.825 9.73126H12.8938C13.5125 8.76876 15.025 7.25623 17.5688 7.25623C20.6625 7.25623 23 9.31873 23 13.7875V22.725H18.325V14.3375C18.325 12.4125 17.6375 11.0375 15.9187 11.0375C14.6125 11.0375 13.8562 11.9313 13.5125 12.825C13.375 13.1 13.375 13.5813 13.375 13.9938V22.725H8.7V12.4125Z" fill="#B6DCE1"/>
</svg>
