<svg width="33" height="27" viewBox="0 0 33 27" fill="none" xmlns="http://www.w3.org/2000/svg">
<path d="M32.1 3.10001C30.9 3.60001 29.7 4.00001 28.3 4.10001C29.7 3.30001 30.7 2 31.2 0.5C29.9 1.3 28.5 1.80001 27 2.10001C25.8 0.800006 24.1 0 22.2 0C18.6 0 15.6 2.90001 15.6 6.60001C15.6 7.10001 15.7 7.60001 15.8 8.10001C10.3 7.80001 5.49999 5.2 2.29999 1.2C1.69999 2.2 1.4 3.3 1.4 4.5C1.4 6.8 2.59999 8.8 4.29999 10C3.19999 10 2.19999 9.7 1.29999 9.2V9.3C1.29999 12.5 3.6 15.1 6.6 15.7C6 15.8 5.5 15.9 4.9 15.9C4.5 15.9 4.1 15.9 3.7 15.8C4.5 18.4 6.99999 20.3 9.79999 20.4C7.59999 22.2 4.7 23.2 1.6 23.2C1.1 23.2 0.500006 23.2 6.10352e-06 23.1C2.90001 25 6.4 26.1 10.1 26.1C22.2 26.1 28.8 16.1 28.8 7.39999C28.8 7.09999 28.8 6.80001 28.8 6.60001C30.1 5.50001 31.3 4.40001 32.1 3.10001Z" fill="white"/>
</svg>
