<svg width="16" height="16" viewBox="0 0 16 16" fill="none" xmlns="http://www.w3.org/2000/svg">
<path d="M15.4549 4.90778C15.4184 4.10947 15.2917 3.56429 15.1062 3.08721C14.9146 2.59403 14.6581 2.17576 14.2412 1.75882C13.8242 1.34186 13.406 1.08541 12.9128 0.893746C12.4357 0.708332 11.8905 0.58157 11.0922 0.545121C10.2923 0.50862 10.0369 0.5 8 0.5C5.96311 0.5 5.70771 0.50862 4.90778 0.545121C4.10947 0.58157 3.56429 0.708332 3.08721 0.893746C2.59405 1.08541 2.17576 1.34184 1.75882 1.75882C1.34186 2.17576 1.08541 2.59403 0.893746 3.08721C0.708332 3.56427 0.58157 4.10947 0.545121 4.90778C0.50862 5.70771 0.5 5.96311 0.5 8C0.5 10.0369 0.50862 10.2923 0.545121 11.0922C0.58157 11.8905 0.708332 12.4357 0.893746 12.9128C1.08541 13.4059 1.34184 13.8242 1.75882 14.2412C2.17576 14.6581 2.59405 14.9146 3.08721 15.1062C3.56429 15.2917 4.10947 15.4184 4.90778 15.4549C5.70772 15.4914 5.96313 15.5 8 15.5C10.0369 15.5 10.2923 15.4914 11.0922 15.4549C11.8905 15.4184 12.4357 15.2917 12.9128 15.1062C13.406 14.9146 13.8242 14.6581 14.2412 14.2412C14.6581 13.8242 14.9146 13.406 15.1062 12.9128C15.2917 12.4357 15.4184 11.8905 15.4549 11.0922C15.4914 10.2922 15.5 10.0369 15.5 8C15.5 5.96313 15.4914 5.70771 15.4549 4.90778ZM14.1049 11.0306C14.0716 11.7619 13.9494 12.159 13.8467 12.4233C13.7106 12.7733 13.5481 13.0232 13.2857 13.2857C13.0232 13.5481 12.7733 13.7106 12.4233 13.8467C12.159 13.9494 11.7619 14.0716 11.0306 14.1049C10.2399 14.141 10.0027 14.1486 8 14.1486C5.99726 14.1486 5.76009 14.141 4.96936 14.1049C4.23815 14.0716 3.84099 13.9494 3.5767 13.8467C3.22663 13.7106 2.9768 13.5481 2.71436 13.2857C2.45191 13.0232 2.28936 12.7733 2.1533 12.4233C2.0506 12.159 1.92844 11.7619 1.89506 11.0306C1.85899 10.2398 1.85134 10.0026 1.85134 8C1.85134 5.99742 1.85897 5.76021 1.89506 4.96936C1.92844 4.23815 2.0506 3.84099 2.1533 3.5767C2.28934 3.22663 2.45189 2.9768 2.71433 2.71436C2.97679 2.45191 3.22663 2.28936 3.5767 2.1533C3.84099 2.0506 4.23813 1.92844 4.96936 1.89506C5.76021 1.85899 5.99742 1.85134 8 1.85134C10.0026 1.85134 10.2398 1.85897 11.0306 1.89506C11.7619 1.92844 12.159 2.0506 12.4233 2.1533C12.7733 2.28934 13.0232 2.45189 13.2857 2.71433C13.5481 2.97679 13.7106 3.22663 13.8467 3.5767C13.9494 3.84099 14.0716 4.23813 14.1049 4.96936C14.141 5.76021 14.1486 5.99742 14.1486 8C14.1486 10.0026 14.141 10.2398 14.1049 11.0306Z" fill="#FCF8F7"/>
<path d="M8.00041 4.14941C5.87335 4.14941 4.14905 5.87373 4.14905 8.00078C4.14905 10.1278 5.87336 11.8521 8.00041 11.8521C10.1275 11.8521 11.8517 10.1278 11.8517 8.00078C11.8517 5.87371 10.1275 4.14941 8.00041 4.14941ZM8.00041 10.5008C6.61969 10.5008 5.50039 9.38148 5.50039 8.00078C5.50039 6.62005 6.61967 5.50076 8.00041 5.50076C9.3811 5.50076 10.5004 6.62004 10.5004 8.00078C10.5004 9.38147 9.3811 10.5008 8.00041 10.5008Z" fill="#FCF8F7"/>
<path d="M12.0044 4.89764C12.5015 4.89764 12.9044 4.4947 12.9044 3.99765C12.9044 3.5006 12.5015 3.09766 12.0044 3.09766C11.5074 3.09766 11.1044 3.5006 11.1044 3.99765C11.1044 4.4947 11.5074 4.89764 12.0044 4.89764Z" fill="#FCF8F7"/>
</svg>
