<svg width="14" height="14" viewBox="0 0 14 14" fill="none" xmlns="http://www.w3.org/2000/svg">
<path d="M3.38034 1.84134C3.38034 2.63184 2.79787 3.2559 1.84096 3.2559C0.925644 3.2559 0.34317 2.63184 0.34317 1.84134C0.34317 1.05084 0.925644 0.426758 1.84096 0.426758C2.79787 0.426758 3.33874 1.05084 3.38034 1.84134ZM0.426379 13.574V4.42084H3.25553V13.574H0.426379ZM5.00294 7.3332C5.00294 6.20986 4.96134 5.25294 4.91973 4.42084H7.37444L7.49925 5.71061H7.54086C7.9153 5.12814 8.83062 4.21281 10.37 4.21281C12.2422 4.21281 13.6568 5.46097 13.6568 8.1653V13.574H10.8277V8.49816C10.8277 7.33322 10.4116 6.50109 9.37148 6.50109C8.58098 6.50109 8.12333 7.04198 7.9153 7.58284C7.83209 7.74926 7.83209 8.0405 7.83209 8.29013V13.574H5.00294V7.3332Z" fill="#FFFDFC"/>
</svg>
